# xmcd
#
# Track frame offsets: 
#        182
#        18102
#        29675
#        47075
#        64367
#        80317
#        97320
#        110777
#        123295
#        135182
#        148632
#        163715
#
# Disc length: 2335 seconds
#
# Revision: 1
# Processed by: cddbd v1.4PL0 Copyright (c) Steve Scherf et al.
# Submitted via: ExactAudioCopy v0.95a3
#
DISCID=a5091d0c
DTITLE=Various Artist - Willie, Waylon and Friends - Disc 2
DYEAR=1998
DGENRE=Country
TTITLE0=Waylon Jennings - Suspicious Minds
TTITLE1=Waylon Jennings - Hold On I'm Comin'
TTITLE2=Waylon Jennings - The Conversation
TTITLE3=Waylon Jennings - Spanish Johnny
TTITLE4=Waylon Jennings - Leave Them Boys Alone
TTITLE5=Waylon Jennings with Jessi Colter - Sight For Sore Eyes
TTITLE6=Waylon Jennings with James Garner - I'll Find It Where I Can
TTITLE7=Waylon Jennings with Mel Tillis - Mason Dixon Line
TTITLE8=Waylon Jennings with Anita Carter - I Got You
TTITLE9=Waylon Jennings with Joe White - So You Want To Be A Cowboy
TTITLE10=Waylon Jennings with Jessi Colter - Wild Side of Life
TTITLE11=Waylon Jennings and The Kimberlys - But You Know I Love You
EXTD=YEAR: 1998
EXTT0=
EXTT1=
EXTT2=
EXTT3=
EXTT4=
EXTT5=
EXTT6=
EXTT7=
EXTT8=
EXTT9=
EXTT10=
EXTT11=
PLAYORDER=
